<svg width="162" height="140" viewBox="0 0 162 140" fill="none" xmlns="http://www.w3.org/2000/svg">
<path d="M131.446 87.9231C148.661 76.6669 154.283 53.7221 143.868 35.6906C138.642 26.6448 130.209 20.1698 120.118 17.4549C110.76 14.9442 101.005 15.9773 92.4039 20.314L80.6672 0L56.3049 42.1896L0 139.711H161.346L131.446 87.9231ZM117.367 27.786C124.707 29.7442 130.809 34.4533 134.606 41.0123C142.078 53.9383 138.197 70.3361 126.076 78.625L97.7737 29.6C103.876 26.6688 110.748 26.0321 117.367 27.786ZM80.6792 21.4071L142.798 128.995H106.459L62.4916 52.9052L80.6672 21.4192L80.6792 21.4071ZM18.5601 129.007L56.3169 63.6328L94.0737 129.007H18.5601Z" fill="#FF7E1A"/>
</svg>
